<svg width="270" height="100" viewBox="0 0 270 100" fill="none" xmlns="http://www.w3.org/2000/svg">
<path d="M154.659 50.1925H161.724V61.841C160.109 62.9925 158.252 63.8762 156.153 64.4921C154.053 65.108 151.954 65.4159 149.854 65.4159C146.893 65.4159 144.229 64.8 141.86 63.5682C139.492 62.3096 137.634 60.5691 136.289 58.3465C134.943 56.1239 134.27 53.6067 134.27 50.795C134.27 47.9833 134.943 45.4661 136.289 43.2435C137.634 41.0209 139.505 39.2937 141.901 38.0619C144.296 36.8034 147.001 36.1741 150.016 36.1741C152.653 36.1741 155.022 36.6159 157.121 37.4996C159.221 38.3833 160.97 39.6552 162.37 41.3155L157.283 45.8946C155.372 43.8059 153.084 42.7615 150.419 42.7615C147.997 42.7615 146.046 43.4979 144.565 44.9707C143.085 46.4168 142.345 48.3582 142.345 50.795C142.345 52.3481 142.681 53.7406 143.354 54.9724C144.027 56.1774 144.969 57.128 146.18 57.8243C147.391 58.4937 148.778 58.8285 150.339 58.8285C151.873 58.8285 153.313 58.5205 154.659 57.9046V50.1925ZM185.728 59.3908H173.777L171.556 64.8536H163.401L175.876 36.7364H183.749L196.265 64.8536H187.948L185.728 59.3908ZM183.386 53.5264L179.752 44.5289L176.119 53.5264H183.386ZM224.048 64.8536L223.967 49.9515L216.7 62.082H213.147L205.92 50.3532V64.8536H198.532V36.7364H205.113L215.044 52.964L224.734 36.7364H231.315L231.396 64.8536H224.048ZM259.743 58.708V64.8536H237.052V36.7364H259.218V42.882H244.966V47.6218H257.522V53.5665H244.966V58.708H259.743ZM148.078 90.4368H143.717V97.908H135.723V69.7908H148.643C151.2 69.7908 153.421 70.2193 155.305 71.0762C157.189 71.9063 158.642 73.1113 159.665 74.6912C160.688 76.2444 161.199 78.0787 161.199 80.1942C161.199 82.2293 160.715 84.0101 159.746 85.5364C158.804 87.036 157.444 88.2143 155.668 89.0712L161.764 97.908H153.205L148.078 90.4368ZM153.124 80.1942C153.124 78.882 152.707 77.8645 151.873 77.1414C151.038 76.4184 149.8 76.0569 148.158 76.0569H143.717V84.2912H148.158C149.8 84.2912 151.038 83.9431 151.873 83.2469C152.707 82.5239 153.124 81.5063 153.124 80.1942ZM179.862 98.4703C176.874 98.4703 174.182 97.841 171.787 96.5825C169.418 95.3239 167.548 93.5833 166.175 91.3607C164.829 89.1381 164.156 86.6343 164.156 83.8494C164.156 81.0645 164.829 78.5607 166.175 76.3381C167.548 74.1155 169.418 72.3749 171.787 71.1163C174.182 69.8578 176.874 69.2285 179.862 69.2285C182.849 69.2285 185.527 69.8578 187.896 71.1163C190.292 72.3749 192.162 74.1155 193.508 76.3381C194.881 78.5607 195.567 81.0645 195.567 83.8494C195.567 86.6343 194.881 89.1381 193.508 91.3607C192.162 93.5833 190.292 95.3239 187.896 96.5825C185.527 97.841 182.849 98.4703 179.862 98.4703ZM179.862 91.8829C181.288 91.8829 182.58 91.5481 183.738 90.8787C184.895 90.2092 185.81 89.272 186.483 88.067C187.156 86.8352 187.492 85.4293 187.492 83.8494C187.492 82.2695 187.156 80.877 186.483 79.672C185.81 78.4402 184.895 77.4896 183.738 76.8201C182.58 76.1507 181.288 75.8159 179.862 75.8159C178.435 75.8159 177.143 76.1507 175.986 76.8201C174.828 77.4896 173.913 78.4402 173.24 79.672C172.567 80.877 172.231 82.2695 172.231 83.8494C172.231 85.4293 172.567 86.8352 173.24 88.067C173.913 89.272 174.828 90.2092 175.986 90.8787C177.143 91.5481 178.435 91.8829 179.862 91.8829ZM214.006 98.4703C211.018 98.4703 208.326 97.841 205.931 96.5825C203.562 95.3239 201.692 93.5833 200.319 91.3607C198.973 89.1381 198.3 86.6343 198.3 83.8494C198.3 81.0645 198.973 78.5607 200.319 76.3381C201.692 74.1155 203.562 72.3749 205.931 71.1163C208.326 69.8578 211.018 69.2285 214.006 69.2285C216.993 69.2285 219.671 69.8578 222.04 71.1163C224.436 72.3749 226.306 74.1155 227.652 76.3381C229.025 78.5607 229.711 81.0645 229.711 83.8494C229.711 86.6343 229.025 89.1381 227.652 91.3607C226.306 93.5833 224.436 95.3239 222.04 96.5825C219.671 97.841 216.993 98.4703 214.006 98.4703ZM214.006 91.8829C215.432 91.8829 216.724 91.5481 217.882 90.8787C219.039 90.2092 219.954 89.272 220.627 88.067C221.3 86.8352 221.636 85.4293 221.636 83.8494C221.636 82.2695 221.3 80.877 220.627 79.672C219.954 78.4402 219.039 77.4896 217.882 76.8201C216.724 76.1507 215.432 75.8159 214.006 75.8159C212.579 75.8159 211.287 76.1507 210.13 76.8201C208.972 77.4896 208.057 78.4402 207.384 79.672C206.712 80.877 206.375 82.2695 206.375 83.8494C206.375 85.4293 206.712 86.8352 207.384 88.067C208.057 89.272 208.972 90.2092 210.13 90.8787C211.287 91.5481 212.579 91.8829 214.006 91.8829ZM259.414 97.908L259.334 83.0059L252.066 95.1364H248.514L241.287 83.4076V97.908H233.898V69.7908H240.479L250.411 86.0184L260.101 69.7908H266.682L266.763 97.908H259.414Z" fill="black"/>
<path d="M141.739 9.98828H133.059V3.68201H158.373V9.98828H149.733V31.7992H141.739V9.98828ZM188.241 3.68201V31.7992H180.246V20.8335H169.346V31.7992H161.352V3.68201H169.346V14.246H180.246V3.68201H188.241ZM216.569 25.6536V31.7992H193.879V3.68201H216.044V9.82761H201.792V14.5674H214.349V20.5121H201.792V25.6536H216.569Z" fill="url(#paint0_linear)"/>
<path d="M94.7904 8.97411C103.869 13.4861 111.285 20.7938 115.882 29.7555C114.184 30.5462 113.403 32.5458 114.136 34.2865C116.302 39.4282 117.5 45.0717 117.5 51C117.5 56.9283 116.302 62.5718 114.136 67.7135C113.403 69.4542 114.184 71.4538 115.882 72.2445C111.285 81.2062 103.869 88.5139 94.7904 93.0259C94.0197 91.3172 92.0279 90.5124 90.2782 91.2265C85.1128 93.3348 79.4487 94.5 73.5 94.5C67.5513 94.5 61.8872 93.3348 56.7218 91.2265C54.9721 90.5124 52.9803 91.3172 52.2096 93.0259C43.1305 88.5139 35.7153 81.2062 31.118 72.2445C32.8162 71.4538 33.5974 69.4542 32.864 67.7135C30.6976 62.5718 29.5 56.9283 29.5 51C29.5 45.0717 30.6976 39.4282 32.864 34.2865C33.5974 32.5458 32.8162 30.5462 31.118 29.7555C35.7153 20.7938 43.1305 13.4861 52.2096 8.97411C52.9803 10.6828 54.9721 11.4876 56.7218 10.7735C61.8872 8.6652 67.5513 7.5 73.5 7.5C79.4487 7.5 85.1128 8.6652 90.2782 10.7735C92.0279 11.4876 94.0197 10.6828 94.7904 8.97411Z" stroke="#CD3DC8" stroke-width="7" stroke-linecap="round" stroke-linejoin="round" stroke-dasharray="90 90"/>
<defs>
<linearGradient id="paint0_linear" x1="132.897" y1="4.39331" x2="216.505" y2="32.0538" gradientUnits="userSpaceOnUse">
<stop stop-color="#6ED3D3"/>
<stop offset="0.375" stop-color="#74D3D5"/>
<stop offset="0.646794" stop-color="#CC3EC8"/>
<stop offset="1" stop-color="#CD3BC7"/>
</linearGradient>
</defs>
</svg>
